Coordinates
version=1
nRows=38
nColumns=12
inDegrees=yes

Units are S.I. units (second, meters, Newtons, ...)
Angles are in degrees

endheader
time	SC_y	SC_z	SC_x	AC_y	AC_z	AC_x	GH_y	GH_z	GH_yy	EL_x	PS_y
       0.0              -44.36          24.09           22.3          44.44         -7.594          -12.9          170.3          41.29          -62.8          75.59          150.9
   0.04286              -44.35          24.09           22.3          44.45         -7.594          -12.9          170.3           41.3         -62.79           75.6          150.9
   0.08571              -44.35          24.09           22.3          44.45         -7.593          -12.9          170.2           41.3         -62.79           75.6          150.9
    0.1286              -44.34           24.1           22.3          44.46         -7.593          -12.9          170.2          41.31         -62.78          75.61          150.9
    0.1714              -44.33           24.1           22.3          44.46         -7.593          -12.9          170.1          41.32         -62.77          75.62          150.9
    0.2143              -44.33           24.1           22.3          44.46         -7.592          -12.9          170.1          41.32         -62.77          75.62          150.9
    0.2571              -44.32           24.1           22.3          44.47         -7.592          -12.9          170.0          41.33         -62.76          75.63          150.9
       0.3              -44.31          24.11           22.3          44.47         -7.592          -12.9          170.0          41.34         -62.75          75.64          150.9
    0.3428              -44.31          24.11           22.3          44.48         -7.591          -12.9          169.9          41.35         -62.74          75.65          150.8
    0.3857               -44.3          24.11           22.3          44.49         -7.591          -12.9          169.8          41.36         -62.73          75.66          150.8
    0.4286              -44.29          24.12          22.29          44.49          -7.59          -12.9          169.8          41.37         -62.72          75.66          150.8
    0.4714              -44.28          24.12          22.29           44.5          -7.59          -12.9          169.7          41.38         -62.71          75.68          150.8
    0.5143              -44.27          24.13          22.29          44.51         -7.589          -12.9          169.6          41.39          -62.7          75.69          150.8
    0.5571              -44.26          24.13          22.29          44.51         -7.589          -12.9          169.5           41.4         -62.69           75.7          150.8
       0.6              -44.25          24.14          22.29          44.52         -7.588          -12.9          169.4          41.41         -62.68          75.71          150.8
    0.6428              -44.23          24.14          22.29          44.53         -7.587         -12.89          169.3          41.43         -62.66          75.73          150.7
    0.6857              -44.22          24.15          22.29          44.54         -7.587         -12.89          169.2          41.44         -62.64          75.74          150.7
    0.7286              -44.21          24.16          22.29          44.55         -7.586         -12.89          169.1          41.46         -62.63          75.76          150.7
    0.7714              -44.19          24.17          22.29          44.57         -7.585         -12.89          168.9          41.48         -62.61          75.78          150.7
    0.8143              -44.17          24.17          22.29          44.58         -7.584         -12.89          168.8           41.5         -62.59           75.8          150.6
    0.8571              -44.15          24.18          22.28          44.59         -7.583         -12.89          168.6          41.52         -62.56          75.82          150.6
       0.9              -44.13          24.19          22.28          44.61         -7.582         -12.89          168.5          41.55         -62.54          75.85          150.6
    0.9428              -44.11           24.2          22.28          44.63         -7.581         -12.89          168.3          41.57         -62.51          75.87          150.5
    0.9857              -44.08          24.22          22.28          44.65         -7.579         -12.88          168.0           41.6         -62.48           75.9          150.5
     1.029              -44.05          24.23          22.28          44.67         -7.578         -12.88          167.8          41.64         -62.45          75.94          150.4
     1.071              -44.02          24.25          22.27          44.69         -7.576         -12.88          167.5          41.67         -62.41          75.97          150.4
     1.114              -43.98          24.26          22.27          44.72         -7.574         -12.88          167.2          41.72         -62.37          76.02          150.3
     1.157              -43.94          24.28          22.27          44.75         -7.572         -12.87          166.9          41.76         -62.32          76.06          150.3
       1.2              -43.89          24.31          22.26          44.78         -7.569         -12.87          166.5          41.82         -62.26          76.12          150.2
     1.243              -43.83          24.33          22.26          44.82         -7.566         -12.86          166.1          41.88          -62.2          76.18          150.1
     1.286              -43.77          24.36          22.26          44.87         -7.563         -12.86          165.6          41.94         -62.13          76.24          150.0
     1.329               -43.7          24.39          22.25          44.92         -7.559         -12.85          165.0          42.02         -62.05          76.32          149.9
     1.371              -43.62          24.43          22.24          44.98         -7.555         -12.85          164.3          42.11         -61.96          76.42          149.8
     1.414              -43.53          24.47          22.24          45.05          -7.55         -12.84          163.6          42.22         -61.85          76.52          149.6
     1.457              -43.42          24.52          22.23          45.13         -7.544         -12.83          162.7          42.34         -61.72          76.65          149.4
       1.5              -43.29          24.58          22.22          45.22         -7.538         -12.82          161.6          42.49         -61.57          76.79          149.2
     1.543              -43.13          24.66          22.21          45.34         -7.529         -12.81          160.4          42.66          -61.4          76.97          149.0
     1.586              -42.95          24.74          22.19          45.47          -7.52          -12.8          158.8          42.87         -61.19          77.17          148.7
